<?xml version="1.0" encoding="UTF-8"?>
<svg xmlns="http://www.w3.org/2000/svg" viewBox="0 0 1000 520"
     font-family="Microsoft YaHei, PingFang SC, sans-serif">
  <defs>
    <filter id="s"><feDropShadow dx="1" dy="2" stdDeviation="3" flood-opacity="0.13"/></filter>
    <marker id="arrow" markerWidth="10" markerHeight="7" refX="9" refY="3.5" orient="auto">
      <polygon points="0 0, 10 3.5, 0 7" fill="#90a4ae"/>
    </marker>
    <linearGradient id="gTitle" x1="0%" y1="0%" x2="100%" y2="0%">
      <stop offset="0%" style="stop-color:#1A3060"/>
      <stop offset="100%" style="stop-color:#3A60A0"/>
    </linearGradient>
    <linearGradient id="gGreen" x1="0%" y1="0%" x2="0%" y2="100%">
      <stop offset="0%" style="stop-color:#1E6A1E"/>
      <stop offset="100%" style="stop-color:#2E8A2E"/>
    </linearGradient>
  </defs>

  <!-- 背景 -->
  <rect width="1000" height="520" fill="#F2F5FA"/>
  
  <!-- 标题栏 -->
  <rect x="0" y="0" width="1000" height="50" fill="url(#gTitle)"/>
  <text x="500" y="29" text-anchor="middle" fill="white" font-size="18" font-weight="bold">文章结构总览</text>
  <text x="500" y="44" text-anchor="middle" fill="#AACCFF" font-size="11">三个需求 + 一个线上问题 · 覆盖七阶段流水线</text>

  <!-- 第一行：章节 1-3 -->
  <!-- 章节1 -->
  <rect x="20" y="65" width="300" height="75" rx="8" fill="white" stroke="#1565C0" stroke-width="1.5" filter="url(#s)"/>
  <rect x="20" y="65" width="300" height="28" rx="8" fill="#1565C0"/>
  <rect x="20" y="85" width="300" height="8" fill="#1565C0"/>
  <text x="170" y="84" text-anchor="middle" fill="white" font-size="12" font-weight="bold">一、AI Coding 的理解</text>
  <text x="40" y="108" fill="#2B5090" font-size="10">1.1 向内看：落地路径</text>
  <text x="40" y="122" fill="#2B5090" font-size="10">1.2 向外看：行业先行者</text>
  <text x="40" y="136" fill="#5A7AAA" font-size="10">1.3 共同趋势</text>

  <!-- 章节2 -->
  <rect x="340" y="65" width="300" height="75" rx="8" fill="white" stroke="#4527A0" stroke-width="1.5" filter="url(#s)"/>
  <rect x="340" y="65" width="300" height="28" rx="8" fill="#4527A0"/>
  <rect x="340" y="85" width="300" height="8" fill="#4527A0"/>
  <text x="490" y="84" text-anchor="middle" fill="white" font-size="12" font-weight="bold">二、AI Coding 的挑战与解法</text>
  <text x="360" y="108" fill="#3A1070" font-size="10">2.1 核心挑战：70%非编码工作量</text>
  <text x="360" y="122" fill="#3A1070" font-size="10">2.2 Harness Engineering</text>
  <text x="360" y="136" fill="#6A4AAA" font-size="10">2.3 内部解法方向</text>

  <!-- 章节3 -->
  <rect x="660" y="65" width="320" height="75" rx="8" fill="white" stroke="#00695C" stroke-width="1.5" filter="url(#s)"/>
  <rect x="660" y="65" width="320" height="28" rx="8" fill="#00695C"/>
  <rect x="660" y="85" width="320" height="8" fill="#00695C"/>
  <text x="820" y="84" text-anchor="middle" fill="white" font-size="12" font-weight="bold">三、范式演进</text>
  <text x="680" y="108" fill="#004D40" font-size="10">3.1 三代范式演进</text>
  <text x="680" y="122" fill="#004D40" font-size="10">3.2 AI 价值密度分布</text>
  <text x="680" y="136" fill="#208070" font-size="10">3.3 SDD 完整工作流</text>

  <!-- 箭头连接第一行 -->
  <line x1="320" y1="102" x2="340" y2="102" stroke="#90a4ae" stroke-width="1.5" marker-end="url(#arrow)"/>
  <line x1="640" y1="102" x2="660" y2="102" stroke="#90a4ae" stroke-width="1.5" marker-end="url(#arrow)"/>

  <!-- 第二行：章节4（放大突出）+ 5-8 -->
  <!-- 章节4（重点） -->
  <rect x="20" y="160" width="480" height="220" rx="10" fill="white" stroke="#E08020" stroke-width="2" filter="url(#s)"/>
  <rect x="20" y="160" width="480" height="32" rx="10" fill="#E08020"/>
  <rect x="20" y="182" width="480" height="10" fill="#E08020"/>
  <text x="260" y="180" text-anchor="middle" fill="white" font-size="14" font-weight="bold">四、实战案例（重点）</text>
  
  <!-- 4.1-4.3 第一列 -->
  <rect x="30" y="200" width="150" height="35" rx="5" fill="#FFF8E8" stroke="#E8A050" stroke-width="1"/>
  <text x="105" y="215" text-anchor="middle" fill="#7A4000" font-size="10" font-weight="bold">4.1 需求拆解</text>
  <text x="105" y="228" text-anchor="middle" fill="#AA6020" font-size="9">①~⑥完整结构</text>
  
  <rect x="30" y="240" width="150" height="35" rx="5" fill="#FFF8E8" stroke="#E8A050" stroke-width="1"/>
  <text x="105" y="255" text-anchor="middle" fill="#7A4000" font-size="10" font-weight="bold">4.2 技术方案</text>
  <text x="105" y="268" text-anchor="middle" fill="#AA6020" font-size="9">五步方案法</text>
  
  <rect x="30" y="280" width="150" height="35" rx="5" fill="#FFF8E8" stroke="#E8A050" stroke-width="1"/>
  <text x="105" y="295" text-anchor="middle" fill="#7A4000" font-size="10" font-weight="bold">4.3 开发</text>
  <text x="105" y="308" text-anchor="middle" fill="#AA6020" font-size="9">编码Prompt调优</text>

  <!-- 4.4-4.6 第二列 -->
  <rect x="190" y="200" width="150" height="35" rx="5" fill="#FFF8E8" stroke="#E8A050" stroke-width="1"/>
  <text x="265" y="215" text-anchor="middle" fill="#7A4000" font-size="10" font-weight="bold">4.4 Debug</text>
  <text x="265" y="228" text-anchor="middle" fill="#AA6020" font-size="9">有锚点 vs 无锚点</text>
  
  <rect x="190" y="240" width="150" height="35" rx="5" fill="#FFF8E8" stroke="#E8A050" stroke-width="1"/>
  <text x="265" y="255" text-anchor="middle" fill="#7A4000" font-size="10" font-weight="bold">4.5 测试准入</text>
  <text x="265" y="268" text-anchor="middle" fill="#AA6020" font-size="9">三层防御机制</text>
  
  <rect x="190" y="280" width="150" height="35" rx="5" fill="#FFF8E8" stroke="#E8A050" stroke-width="1"/>
  <text x="265" y="295" text-anchor="middle" fill="#7A4000" font-size="10" font-weight="bold">4.6 线上Bug</text>
  <text x="265" y="308" text-anchor="middle" fill="#AA6020" font-size="9">重建问题现场</text>

  <!-- 四个案例 -->
  <rect x="350" y="200" width="140" height="35" rx="5" fill="#E8F2FF" stroke="#5B8DD9" stroke-width="1"/>
  <text x="420" y="215" text-anchor="middle" fill="#2B5090" font-size="10">🎁 礼物贴纸</text>
  <text x="420" y="228" text-anchor="middle" fill="#5A7AAA" font-size="9">KRN新栈</text>
  
  <rect x="350" y="240" width="140" height="35" rx="5" fill="#F0E8FC" stroke="#9B6DC8" stroke-width="1"/>
  <text x="420" y="255" text-anchor="middle" fill="#4A2070" font-size="10">🎁 成组送</text>
  <text x="420" y="268" text-anchor="middle" fill="#7A4AAA" font-size="9">业务上下文重</text>
  
  <rect x="350" y="280" width="140" height="35" rx="5" fill="#E0F4F8" stroke="#00838F" stroke-width="1"/>
  <text x="420" y="295" text-anchor="middle" fill="#004D60" font-size="10">🔗 连线迁移</text>
  <text x="420" y="308" text-anchor="middle" fill="#106070" font-size="9">架构决策成本高</text>
  
  <rect x="350" y="320" width="140" height="35" rx="5" fill="none" stroke="#E08020" stroke-width="1.5" stroke-dasharray="4,2"/>
  <text x="420" y="335" text-anchor="middle" fill="#7A4000" font-size="10">📺 KMP线上</text>
  <text x="420" y="348" text-anchor="middle" fill="#AA6020" font-size="9">多团队协作</text>

  <!-- 底部流程标注 -->
  <text x="260" y="360" text-anchor="middle" fill="#E08020" font-size="11">①核心判断→②案例实战→③实践小结→④行业对比→⑤范式沉淀→⑥范式案例</text>

  <!-- 章节5 -->
  <rect x="520" y="160" width="220" height="85" rx="8" fill="white" stroke="#2E7D32" stroke-width="1.5" filter="url(#s)"/>
  <rect x="520" y="160" width="220" height="28" rx="8" fill="#2E7D32"/>
  <rect x="520" y="180" width="220" height="8" fill="#2E7D32"/>
  <text x="630" y="180" text-anchor="middle" fill="white" font-size="12" font-weight="bold">五、优化方向</text>
  <text x="540" y="204" fill="#1A5A1A" font-size="10">各阶段优化计划</text>
  <text x="540" y="218" fill="#5A9A5A" font-size="10">四大重点方向</text>

  <!-- 章节6 -->
  <rect x="760" y="160" width="220" height="85" rx="8" fill="white" stroke="#00695C" stroke-width="1.5" filter="url(#s)"/>
  <rect x="760" y="160" width="220" height="28" rx="8" fill="#00695C"/>
  <rect x="760" y="180" width="220" height="8" fill="#00695C"/>
  <text x="870" y="180" text-anchor="middle" fill="white" font-size="12" font-weight="bold">六、行业演进推演</text>
  <text x="780" y="204" fill="#004D40" font-size="10">6.1 推演时间线</text>
  <text x="780" y="218" fill="#208070" font-size="10">6.2 值得投入的方向</text>

  <!-- 章节7 -->
  <rect x="520" y="260" width="220" height="85" rx="8" fill="white" stroke="#AD1457" stroke-width="1.5" filter="url(#s)"/>
  <rect x="520" y="260" width="220" height="28" rx="8" fill="#AD1457"/>
  <rect x="520" y="280" width="220" height="8" fill="#AD1457"/>
  <text x="630" y="280" text-anchor="middle" fill="white" font-size="12" font-weight="bold">七、人员准备</text>
  <text x="540" y="304" fill="#6A1050" font-size="10">7.1 π型人才画像</text>
  <text x="540" y="318" fill="#9A4080" font-size="10">7.2 不同角色应对方向</text>

  <!-- 章节8 -->
  <rect x="760" y="260" width="220" height="85" rx="8" fill="white" stroke="#6A1B9A" stroke-width="1.5" filter="url(#s)"/>
  <rect x="760" y="260" width="220" height="28" rx="8" fill="#6A1B9A"/>
  <rect x="760" y="280" width="220" height="8" fill="#6A1B9A"/>
  <text x="870" y="280" text-anchor="middle" fill="white" font-size="12" font-weight="bold">八、个人心得</text>
  <text x="780" y="304" fill="#4A1070" font-size="10">8.1 三个认知颠覆</text>
  <text x="780" y="318" fill="#8A50B0" font-size="10">8.2 两个习惯养成</text>

  <!-- 箭头连接第二行 -->
  <line x1="500" y1="270" x2="520" y2="200" stroke="#90a4ae" stroke-width="1.5" marker-end="url(#arrow)"/>
  <line x1="500" y1="270" x2="520" y2="300" stroke="#90a4ae" stroke-width="1.5" marker-end="url(#arrow)"/>
  <line x1="740" y1="200" x2="760" y2="200" stroke="#90a4ae" stroke-width="1.5" marker-end="url(#arrow)"/>
  <line x1="740" y1="300" x2="760" y2="300" stroke="#90a4ae" stroke-width="1.5" marker-end="url(#arrow)"/>

  <!-- 底部备注 -->
  <text x="500" y="390" text-anchor="middle" fill="#888" font-size="11">三个需求（🎁礼物贴纸 · 🎁成组送 · 🔗连线迁移）+ 一个线上问题（📺KMP连麦画面静止）</text>
  <text x="500" y="408" text-anchor="middle" fill="#aaa" font-size="10">覆盖 4.1 需求拆解 → 4.6 线上Bug 七阶段完整流水线</text>
</svg>
